# 3ds Max Wavefront OBJ Exporter v0.97b - (c)2007 guruware
# File Created: 25.04.2020 10:14:59

mtllib hair.mtl

#
# object vsn_mesh_0_BodyB
#

v  203.2868 16944.3105 902.5070
v  -43.6947 16604.0000 1361.3983
v  379.0139 16487.9707 1454.1702
v  691.9985 16766.8594 1010.3531
v  872.5768 16952.6504 739.4516
v  1219.7841 16606.2891 969.7739
v  1055.5221 16710.4590 507.2067
v  391.4213 17140.9707 467.2379
v  707.2597 17091.4902 153.3813
v  1279.7200 16767.6699 5.8533
v  1049.5469 16971.1113 -27.9816
v  -118.7098 17249.6797 260.8582
v  -270.5745 17042.9102 867.5949
v  -720.7120 16872.6699 705.7114
v  -1085.5869 16574.1387 970.8466
v  -590.2081 16678.5605 1363.1973
v  -1110.9219 16419.2383 1778.6133
v  -625.1268 16389.2500 1655.1040
v  -1162.2539 16698.5117 567.1143
v  -1294.2679 16321.9502 776.2970
v  -1335.2781 16531.6094 404.7638
v  1499.8969 16316.4990 243.1549
v  1390.4929 16387.0898 -160.5377
v  1683.3917 15624.9619 197.9187
v  1308.9561 16238.4990 587.6312
v  1073.0541 16564.8398 879.8187
v  867.7748 16303.6699 1228.0701
v  1283.1080 16133.3604 906.1234
v  994.5328 15936.9219 1001.8951
v  1285.2350 15656.3525 824.6552
v  1071.9611 15585.7422 899.1806
v  907.4980 15890.5010 1256.0547
v  1158.2980 15328.9326 785.1929
v  1168.8000 15479.3213 585.1944
v  1054.5499 16927.8008 -391.7999
v  649.6105 16005.2900 1236.9949
v  601.7507 16199.4404 1195.6299
v  338.4034 15943.5215 1391.8533
v  757.7574 15766.1514 1232.3196
v  906.1708 15584.4912 1156.1265
v  987.4695 15768.5713 1092.4438
v  28.8881 16027.5693 1646.7468
v  -73.1668 15735.0215 1473.7075
v  -343.6649 15655.0020 1502.6672
v  -337.3249 15941.6719 1388.6704
v  -548.9388 16081.6104 1594.1575
v  -839.1049 16242.3994 1411.3495
v  -869.5129 15682.3516 1482.8416
v  -1199.6100 16001.7197 1238.8748
v  -1158.4259 15432.7910 1096.8369
v  -1382.8469 15639.1816 1026.5090
v  -646.2415 15658.5820 1334.0057
v  -1468.4939 15435.0117 784.1003
v  -1284.5759 15609.5215 718.9346
v  -1151.3630 16084.8906 843.0801
v  529.0897 17014.1797 -604.5212
v  27.7016 17053.6094 -560.8871
v  276.6019 17371.7402 -119.1971
v  -130.3394 17507.5195 693.7576
v  791.7446 17157.4707 -391.6580
v  942.7709 17202.2500 64.8849
v  1231.1669 16501.9609 -860.2982
v  -469.2422 17249.0195 -12.2833
v  -957.1506 17113.2012 443.7271
v  -942.9347 16969.3105 -371.2677
v  -1412.3839 16893.3203 802.7878
v  -594.3352 16875.0508 -862.0560
v  -316.7474 16652.3809 -1050.8667
v  -1061.0842 16386.5996 -1055.0796
v  -1232.0802 16323.1504 -588.3926
v  -1523.7262 15725.8418 -1169.1147
v  -1492.6141 16199.5195 148.1384
v  -610.5582 16184.8096 -1340.7944
v  -115.5365 16308.3799 -1546.8215
v  -347.7980 15959.4619 -1904.5486
v  60.5909 16664.3594 -1329.5441
v  307.2532 16109.0703 -1587.7228
v  236.7182 17024.5605 -914.8682
v  635.8247 16346.0908 -1163.7970
v  1426.0509 15932.4111 -498.0133
v  1285.9138 16102.4004 -1007.1213
v  1408.5109 15632.6416 -1213.8580
v  1224.4679 17211.5996 -40.9653
v  -1433.4801 15881.7520 -63.6429
v  -337.6834 14276.0820 -737.3398
v  -765.1679 14331.5811 -326.5305
v  -965.3358 14875.1416 -953.1006
v  -1162.8962 14889.7021 -522.3358
v  -1388.2161 15484.1309 -363.6017
v  -1121.1191 15686.3311 -1056.4988
v  -541.2008 14883.0723 -1280.0995
v  -624.1882 15764.3721 -1376.6860
v  0.0007 14890.1611 -1415.9531
v  0.0007 15819.6318 -1527.2354
v  624.1896 15764.3721 -1376.6860
v  541.2022 14883.0723 -1280.0995
v  0.0008 14250.1709 -790.8188
v  337.6850 14276.0820 -737.3398
v  0.0008 13832.6924 -679.9789
v  205.6298 14081.9805 -482.9056
v  279.5933 13945.3018 -540.7913
v  -956.3521 14656.6113 -47.9858
v  -773.9527 14477.0020 -99.8764
v  -279.5917 13945.3018 -540.7913
v  -528.3124 14290.6924 -235.8582
v  -205.6282 14081.9805 -482.9056
v  -1171.7220 15094.6016 153.4195
v  1121.1208 15686.3311 -1056.4988
v  965.3373 14875.1416 -953.1006
v  1388.2179 15484.1309 -363.6017
v  1459.8149 15669.9512 116.6687
v  1407.3740 15374.2412 370.0302
v  1171.7239 15094.6016 153.4195
v  1047.8859 14682.2109 294.8334
v  1145.9501 15219.5020 508.8593
v  1162.8978 14889.7021 -522.3358
v  765.1696 14331.5811 -326.5305
v  956.3538 14656.6113 -47.9858
v  528.3141 14290.6924 -235.8582
v  773.9547 14477.0020 -99.8764
v  -1414.8440 15374.2412 370.0317
v  -1047.8842 14682.2109 294.8334
v  -1145.9479 15219.5020 508.8593
v  -1766.6233 15522.2520 -148.3688
v  -1629.3633 15717.9111 170.2576
v  -1493.3251 15983.5615 477.1698
v  -1065.1959 15688.2617 602.6489
v  -273.0689 15974.4521 1207.2998
v  0.0008 14191.8018 -434.1431
# 129 vertices

vn 0.1134 0.8400 0.5305
vn 0.0959 0.7622 0.6402
vn 0.1109 0.7830 0.6121
vn 0.2453 0.7211 0.6479
vn 0.4651 0.8327 0.3004
vn 0.5708 0.7671 0.2928
vn 0.7483 0.6421 0.1663
vn 0.1288 0.9275 0.3509
vn 0.5073 0.8379 0.2015
vn 0.7956 0.6040 0.0473
vn 0.6051 0.7354 0.3051
vn -0.0706 0.9378 0.3400
vn -0.1255 0.8989 0.4197
vn -0.4309 0.8481 0.3081
vn -0.5380 0.7870 0.3020
vn -0.1131 0.8448 0.5230
vn -0.1107 0.8999 0.4218
vn 0.1783 0.6881 0.7034
vn -0.6956 0.6286 0.3479
vn -0.8223 0.4683 0.3234
vn -0.7998 0.4804 0.3599
vn 0.9100 0.3631 0.1999
vn 0.9128 0.3371 -0.2304
vn 0.9550 0.2426 0.1709
vn 0.9019 0.3174 0.2930
vn 0.7431 0.4747 0.4716
vn 0.2968 0.2549 0.9203
vn 0.8415 0.0809 0.5342
vn 0.6432 -0.1266 0.7552
vn 0.8853 -0.2472 0.3937
vn -0.5999 -0.4011 0.6923
vn 0.5232 -0.0290 0.8517
vn -0.0338 -0.9882 0.1494
vn -0.9540 -0.1953 -0.2274
vn 0.9294 -0.2685 -0.2533
vn 0.7841 0.5844 -0.2090
vn -0.1005 0.0595 0.9932
vn 0.2855 0.1191 0.9509
vn 0.4556 0.2105 0.8650
vn 0.5131 0.1220 0.8496
vn 0.5927 -0.2547 0.7641
vn 0.0135 -0.2028 0.9791
vn 0.5374 -0.2639 0.8010
vn 0.8893 -0.0290 0.4563
vn 0.0203 -0.0565 0.9982
vn -0.1320 0.3494 0.9276
vn 0.3093 -0.5615 0.7675
vn -0.3346 -0.0290 0.9419
vn -0.0367 -0.0824 0.9959
vn 0.0803 -0.0046 0.9968
vn -0.4678 0.3280 0.8207
vn -0.1780 -0.4834 0.8571
vn -0.8224 0.1954 0.5342
vn -0.5366 -0.4272 0.7277
vn -0.9217 0.0381 0.3861
vn 0.3412 -0.6820 0.6469
vn -0.9575 0.2640 0.1160
vn -0.8190 0.4839 -0.3083
vn -0.9510 0.2884 -0.1114
vn -0.8760 0.3356 0.3463
vn 0.2726 0.8265 -0.4925
vn -0.1253 0.9132 -0.3879
vn 0.1050 0.9666 -0.2336
vn 0.1472 0.9872 0.0610
vn 0.5326 0.8178 0.2182
vn 0.1341 0.9861 -0.0977
vn -0.3405 0.9231 -0.1785
vn -0.0014 0.8898 -0.4563
vn -0.2427 0.9700 -0.0137
vn 0.5467 0.6283 -0.5535
vn 0.6726 0.5022 -0.5434
vn 0.9263 0.3433 -0.1556
vn -0.1309 0.9812 -0.1419
vn -0.2481 0.9383 0.2410
vn -0.5801 0.7448 -0.3297
vn -0.2241 0.9313 0.2870
vn 0.0611 0.7614 0.6454
vn -0.2564 0.7432 -0.6180
vn -0.2646 0.6925 -0.6712
vn -0.5550 0.6208 -0.5537
vn -0.8119 0.5127 -0.2792
vn -0.6242 0.5354 -0.5690
vn -0.9125 0.3326 -0.2380
vn -0.3429 0.6242 -0.7020
vn -0.1330 0.6608 -0.7387
vn -0.1441 0.7532 -0.6419
vn -0.0042 0.6807 -0.7326
vn 0.3174 0.5542 -0.7695
vn 0.1044 0.8741 -0.4744
vn 0.4059 0.5481 -0.7313
vn 0.9547 0.2381 -0.1786
vn 0.7298 0.3813 -0.5674
vn 0.7567 0.4184 -0.5024
vn 0.1688 0.9211 -0.3508
vn -0.7901 0.6105 -0.0549
vn -0.7113 0.7019 0.0366
vn -0.9442 0.0427 -0.3266
vn -0.3978 -0.6286 -0.6683
vn -0.6173 -0.7845 0.0595
vn -0.6924 -0.4548 -0.5601
vn -0.8783 -0.4471 -0.1694
vn -0.9517 -0.1938 -0.2380
vn -0.8074 -0.1160 -0.5784
vn -0.9377 0.0839 -0.3372
vn -0.3740 -0.4287 -0.8224
vn -0.3736 -0.1314 -0.9182
vn -0.0000 -0.4152 -0.9097
vn 0.0535 -0.0259 -0.9982
vn 0.3972 0.0916 -0.9132
vn 0.3740 -0.4287 -0.8224
vn -0.0000 -0.4942 -0.8694
vn 0.3978 -0.6286 -0.6683
vn -0.0000 -0.6484 -0.7613
vn 0.0633 -0.8089 -0.5845
vn -0.0243 -0.6883 -0.7250
vn -0.8153 -0.5573 0.1573
vn -0.5055 -0.7353 0.4515
vn 0.0243 -0.6883 -0.7250
vn -0.3410 -0.7661 0.5448
vn -0.0633 -0.8089 -0.5845
vn -0.8669 -0.4716 -0.1618
vn 0.7364 -0.1068 -0.6681
vn 0.6924 -0.4548 -0.5601
vn 0.9455 -0.2640 -0.1907
vn 0.9786 -0.0732 -0.1923
vn 0.9965 -0.0702 0.0458
vn 0.8804 -0.3141 0.3553
vn 0.8703 -0.4683 -0.1525
vn 0.8725 -0.4684 0.1388
vn 0.5916 -0.3477 0.7274
vn 0.6128 -0.1830 0.7688
vn 0.8579 -0.0320 0.5128
vn 0.9958 0.0900 -0.0168
vn 0.8783 -0.4471 -0.1694
vn 0.6173 -0.7845 0.0595
vn 0.8153 -0.5573 0.1573
vn 0.3410 -0.7661 0.5448
vn 0.5055 -0.7353 0.4515
vn 0.4064 0.3054 -0.8612
vn -0.7628 -0.6348 0.1236
vn -0.8687 -0.4760 0.1373
vn -0.5994 -0.4426 0.6669
vn -0.6095 -0.5325 0.5874
vn -0.9782 -0.1389 -0.1541
vn -0.8584 -0.1939 -0.4748
vn 0.6597 -0.4745 -0.5828
vn -0.9543 0.1022 -0.2807
vn -0.9349 0.3524 0.0412
vn -0.9202 0.0198 0.3908
vn -0.9001 0.0778 0.4287
vn -0.8445 -0.2060 0.4944
vn -0.9814 0.1343 0.1374
vn -0.3159 0.4855 -0.8152
vn -0.8244 -0.1007 0.5569
vn -0.6797 -0.1129 0.7247
vn -0.7630 -0.0275 0.6459
vn -0.5874 -0.1296 0.7988
vn -0.9249 0.2976 0.2365
vn 0.4779 -0.8059 0.3495
vn 0.2661 -0.8044 -0.5312
vn 0.6147 -0.7887 -0.0046
vn 0.5922 -0.5705 -0.5690
vn 0.3047 -0.9503 -0.0641
vn 0.5222 -0.2532 0.8144
vn 0.5239 -0.6906 -0.4985
vn 0.4978 -0.7102 -0.4979
vn 0.0699 -0.7489 -0.6589
vn 0.0054 -0.5725 -0.8199
vn 0.0069 -0.3724 -0.9280
vn 0.0099 -0.3698 -0.9291
vn -0.3862 0.0915 -0.9179
vn -0.4115 0.0901 -0.9070
vn -0.5497 0.0886 -0.8307
vn -0.2411 0.0901 -0.9663
vn 0.0000 -0.6027 0.7980
vn 0.1937 -0.5724 0.7968
vn 0.0000 -0.5645 0.8254
vn -0.1937 -0.5724 0.7968
vn 0.2214 -0.5832 0.7816
vn 0.2956 -0.5036 0.8118
vn -0.2214 -0.5832 0.7816
vn -0.2956 -0.5036 0.8118
vn -0.5778 -0.2822 -0.7658
vn -0.5359 -0.3248 -0.7793
vn -0.5458 -0.2229 -0.8077
vn -0.4968 -0.2840 -0.8201
vn -0.5183 -0.0656 -0.8527
vn -0.5769 -0.3036 -0.7583
vn 0.6351 -0.7281 -0.2580
vn 0.2447 -0.8862 -0.3935
vn -0.2305 -0.9622 -0.1449
vn -0.4815 -0.8679 0.1220
vn 0.6703 -0.7341 -0.1084
vn 0.2911 -0.9108 0.2929
vn -0.3767 -0.9123 0.1605
vn -0.2299 -0.9624 0.1449
vn -0.6802 -0.7159 -0.1572
vn 0.4166 -0.8926 0.1724
vn 0.6621 -0.4499 0.5994
vn 0.3894 -0.1830 0.9027
vn 0.6688 -0.4332 0.6041
vn 0.4149 -0.1679 0.8942
vn 0.8084 -0.5831 0.0809
vn -0.1790 -0.7491 0.6378
vn 0.1609 -0.9695 0.1847
vn 0.1617 -0.9697 0.1832
vn 0.4447 -0.8272 -0.3434
vn -0.0370 -0.9769 -0.2106
vn -0.2698 -0.6002 0.7530
vn -0.1646 -0.9533 0.2532
vn 0.1583 -0.6067 -0.7790
vn -0.4361 -0.8639 0.2519
vn -0.5056 -0.8472 0.1633
vn 0.0737 -0.7284 0.6812
vn -0.7556 -0.5615 -0.3372
vn -0.0592 -0.9334 -0.3538
vn -0.1715 -0.9826 -0.0717
vn -0.3720 -0.6487 0.6640
vn 0.2645 -0.3250 -0.9080
vn -0.3464 -0.8770 -0.3331
vn 0.0386 -0.9217 0.3861
vn -0.4889 -0.4784 -0.7295
vn -0.3615 -0.8053 0.4698
# 223 vertex normals

vt 0.8380 0.4528 0.0000
vt 0.8635 0.5121 0.0000
vt 0.8384 0.5340 0.0000
vt 0.8141 0.4895 0.0000
vt 0.7998 0.4605 0.0000
vt 0.7903 0.4986 0.0000
vt 0.7791 0.4599 0.0000
vt 0.8186 0.4084 0.0000
vt 0.7938 0.3938 0.0000
vt 0.7576 0.4149 0.0000
vt 0.7709 0.3928 0.0000
vt 0.8418 0.3663 0.0000
vt 0.8619 0.4262 0.0000
vt 0.8858 0.3943 0.0000
vt 0.9122 0.4170 0.0000
vt 0.8937 0.4752 0.0000
vt 0.9332 0.5015 0.0000
vt 0.9059 0.5161 0.0000
vt 0.9104 0.3636 0.0000
vt 0.9328 0.3910 0.0000
vt 0.9247 0.3411 0.0000
vt 0.7434 0.4663 0.0000
vt 0.7332 0.4221 0.0000
vt 0.7087 0.5218 0.0000
vt 0.7614 0.5064 0.0000
vt 0.8026 0.5416 0.0000
vt 0.7761 0.5365 0.0000
vt 0.7844 0.5678 0.0000
vt 0.7629 0.5719 0.0000
vt 0.7689 0.5920 0.0000
vt 0.7958 0.5806 0.0000
vt 0.7543 0.6021 0.0000
vt 0.7693 0.6017 0.0000
vt 0.7478 0.5790 0.0000
vt 0.7566 0.3607 0.0000
vt 0.8112 0.5767 0.0000
vt 0.8160 0.5560 0.0000
vt 0.8314 0.5954 0.0000
vt 0.8019 0.5991 0.0000
vt 0.7879 0.6161 0.0000
vt 0.7851 0.5884 0.0000
vt 0.8544 0.5874 0.0000
vt 0.8582 0.6349 0.0000
vt 0.8801 0.6475 0.0000
vt 0.8830 0.5982 0.0000
vt 0.8967 0.5770 0.0000
vt 0.9133 0.5549 0.0000
vt 0.9127 0.6106 0.0000
vt 0.9321 0.5832 0.0000
vt 0.9332 0.6411 0.0000
vt 0.9446 0.6194 0.0000
vt 0.9026 0.6264 0.0000
vt 0.9565 0.6425 0.0000
vt 0.9609 0.6155 0.0000
vt 0.9505 0.5661 0.0000
vt 0.9373 0.5180 0.0000
vt 0.9103 0.7709 0.0000
vt 0.8825 0.7854 0.0000
vt 0.8849 0.7250 0.0000
vt 0.9068 0.6872 0.0000
vt 0.8873 0.6613 0.0000
vt 0.8526 0.6598 0.0000
vt 0.8565 0.7144 0.0000
vt 0.9203 0.7374 0.0000
vt 0.9212 0.6881 0.0000
vt 0.9376 0.7410 0.0000
vt 0.9556 0.7982 0.0000
vt 0.9730 0.7336 0.0000
vt 0.8473 0.7547 0.0000
vt 0.8156 0.7389 0.0000
vt 0.8352 0.8095 0.0000
vt 0.7851 0.7327 0.0000
vt 0.8162 0.6967 0.0000
vt 0.8602 0.8410 0.0000
vt 0.8776 0.8593 0.0000
vt 0.8441 0.9004 0.0000
vt 0.8211 0.8808 0.0000
vt 0.8240 0.9710 0.0000
vt 0.7845 0.8474 0.0000
vt 0.8706 0.9220 0.0000
vt 0.8991 0.9097 0.0000
vt 0.8968 0.9681 0.0000
vt 0.9006 0.8641 0.0000
vt 0.9242 0.9113 0.0000
vt 0.8991 0.8084 0.0000
vt 0.9347 0.8530 0.0000
vt 0.9899 0.7831 0.0000
vt 0.9719 0.8283 0.0000
vt 0.9924 0.8658 0.0000
vt 0.9367 0.6911 0.0000
vt 0.7865 0.8019 0.0000
vt 0.7890 0.7729 0.0000
vt 0.7841 0.8851 0.0000
vt 0.8702 0.0766 0.0000
vt 0.9032 0.0674 0.0000
vt 0.8995 0.1545 0.0000
vt 0.9207 0.1344 0.0000
vt 0.9484 0.1799 0.0000
vt 0.9152 0.2344 0.0000
vt 0.9504 0.2753 0.0000
vt 0.8756 0.1687 0.0000
vt 0.8854 0.2593 0.0000
vt 0.8487 0.1754 0.0000
vt 0.8495 0.2779 0.0000
vt 0.8132 0.2609 0.0000
vt 0.8219 0.1690 0.0000
vt 0.8491 0.0754 0.0000
vt 0.8277 0.0756 0.0000
vt 0.8493 0.0075 0.0000
vt 0.8308 0.0371 0.0000
vt 0.8242 0.0094 0.0000
vt 0.9283 0.0781 0.0000
vt 0.9173 0.0593 0.0000
vt 0.8744 0.0115 0.0000
vt 0.9015 0.0427 0.0000
vt 0.8677 0.0383 0.0000
vt 0.9523 0.1051 0.0000
vt 0.7819 0.2397 0.0000
vt 0.7975 0.1550 0.0000
vt 0.7490 0.1813 0.0000
vt 0.7419 0.2334 0.0000
vt 0.7198 0.1696 0.0000
vt 0.7184 0.1255 0.0000
vt 0.7399 0.1052 0.0000
vt 0.7432 0.0549 0.0000
vt 0.7141 0.0904 0.0000
vt 0.7013 0.1093 0.0000
vt 0.6777 0.1843 0.0000
vt 0.7112 0.2573 0.0000
vt 0.7757 0.1339 0.0000
vt 0.7937 0.0642 0.0000
vt 0.7667 0.0742 0.0000
vt 0.7960 0.0385 0.0000
vt 0.7789 0.0547 0.0000
vt 0.8019 0.3283 0.0000
vt 0.9770 0.1122 0.0000
vt 0.9449 0.0650 0.0000
vt 0.9711 0.0829 0.0000
vt 0.9937 0.1029 0.0000
vt 0.9677 0.2009 0.0000
vt 0.9891 0.1796 0.0000
vt 0.9480 0.3154 0.0000
vt 0.9791 0.3260 0.0000
vt 0.9580 0.3597 0.0000
vt 0.9967 0.3685 0.0000
vt 0.9969 0.2859 0.0000
vt 0.9756 0.2900 0.0000
vt 0.9760 0.4078 0.0000
vt 0.9443 0.4147 0.0000
vt 0.7687 0.8485 0.0000
vt 0.7631 0.9356 0.0000
vt 0.7593 0.8396 0.0000
vt 0.7468 0.9022 0.0000
vt 0.7706 0.9311 0.0000
vt 0.7709 0.8103 0.0000
vt 0.7462 0.8625 0.0000
vt 0.7505 0.8284 0.0000
vt 0.7954 0.9835 0.0000
vt 0.7789 0.9794 0.0000
vt 0.7620 0.9631 0.0000
vt 0.7530 0.9495 0.0000
vt 0.8905 0.3060 0.0000
vt 0.9715 0.0108 0.0000
vt 0.9703 0.0374 0.0000
vt 0.9915 0.0386 0.0000
vt 0.9472 0.0414 0.0000
vt 0.9745 0.0540 0.0000
vt 0.7753 0.3346 0.0000
vt 0.7482 0.3182 0.0000
vt 0.7717 0.3012 0.0000
vt 0.7530 0.2963 0.0000
vt 0.7618 0.2671 0.0000
vt 0.7742 0.3612 0.0000
vt 0.7496 0.6650 0.0000
vt 0.7634 0.6816 0.0000
vt 0.7560 0.7194 0.0000
vt 0.7810 0.7253 0.0000
vt 0.7479 0.6213 0.0000
vt 0.7989 0.6645 0.0000
vt 0.7847 0.6888 0.0000
vt 0.7870 0.6527 0.0000
vt 0.7667 0.6390 0.0000
vt 0.8174 0.6296 0.0000
vt 0.9600 0.9921 0.0000
vt 0.9452 0.9729 0.0000
vt 0.9611 0.9500 0.0000
vt 0.9362 0.9438 0.0000
vt 0.9798 0.9419 0.0000
vt 0.9629 0.5981 0.0000
vt 0.9928 0.5677 0.0000
vt 0.9928 0.5382 0.0000
vt 0.9874 0.9258 0.0000
vt 0.9571 0.9293 0.0000
vt 0.9874 0.8938 0.0000
vt 0.9910 0.6118 0.0000
vt 0.9910 0.6656 0.0000
vt 0.9665 0.6656 0.0000
vt 0.9663 0.6512 0.0000
vt 0.9946 0.4496 0.0000
vt 0.9946 0.4106 0.0000
vt 0.9360 0.4768 0.0000
vt 0.9937 0.5115 0.0000
vt 0.9942 0.4788 0.0000
vt 0.9605 0.5407 0.0000
vt 0.9927 0.4787 0.0000
vt 0.9745 0.6866 0.0000
vt 0.9617 0.7203 0.0000
vt 0.9481 0.6868 0.0000
# 208 texture coords

o vsn_mesh_0_BodyB
g vsn_mesh_0_BodyB
usemtl BodyB_mat
s off
f 1/1/1 2/2/2 3/3/3 
f 4/4/4 1/1/1 3/3/3 
f 5/5/5 1/1/1 4/4/4 
f 4/4/4 6/6/6 5/5/5 
f 5/5/5 6/6/6 7/7/7 
f 5/5/5 8/8/8 1/1/1 
f 5/5/5 7/7/7 9/9/9 
f 8/8/8 5/5/5 9/9/9 
f 9/9/9 7/7/7 10/10/10 
f 10/10/10 11/11/11 9/9/9 
f 8/8/8 12/12/12 1/1/1 
f 1/1/1 12/12/12 13/13/13 
f 1/1/1 13/13/13 2/2/2 
f 12/12/12 14/14/14 13/13/13 
f 13/13/13 14/14/14 15/15/15 
f 16/16/16 13/13/13 15/15/15 
f 2/2/2 13/13/13 16/16/16 
f 15/15/15 17/17/17 16/16/16 
f 17/17/17 18/18/18 16/16/16 
f 18/18/18 2/2/2 16/16/16 
f 15/15/15 14/14/14 19/19/19 
f 19/19/19 20/20/20 15/15/15 
f 21/21/21 20/20/20 19/19/19 
f 22/22/22 10/10/10 7/7/7 
f 10/10/10 22/22/22 23/23/23 
f 22/22/22 24/24/24 23/23/23 
f 7/7/7 25/25/25 22/22/22 
f 22/22/22 25/25/25 24/24/24 
f 26/6/26 25/25/25 7/7/7 
f 27/26/27 26/6/26 4/4/4 
f 27/26/27 28/27/28 26/6/26 
f 25/25/25 26/6/26 28/27/28 
f 28/27/28 27/26/27 29/28/29 
f 29/28/29 30/29/30 28/27/28 
f 28/27/28 30/29/30 25/25/25 
f 31/30/31 30/29/30 29/28/29 
f 32/31/32 29/28/29 27/26/27 
f 30/29/30 31/30/31 33/32/33 
f 33/32/33 31/30/31 34/33/34 
f 31/30/31 29/28/29 34/33/34 
f 33/32/33 34/34/35 30/29/30 
f 30/29/30 34/34/35 25/25/25 
f 10/10/10 23/23/23 35/35/36 
f 10/10/10 35/35/36 11/11/11 
f 27/26/27 36/36/37 32/31/32 
f 27/26/27 37/37/38 36/36/37 
f 37/37/38 27/26/27 4/4/39 
f 3/3/40 37/37/38 4/4/39 
f 3/3/40 38/38/41 37/37/38 
f 32/31/32 36/36/37 39/39/42 
f 32/31/32 39/39/42 40/40/43 
f 41/41/44 32/31/32 40/40/43 
f 29/28/29 32/31/32 41/41/44 
f 3/3/40 42/42/45 38/38/41 
f 2/2/46 42/42/45 3/3/40 
f 43/43/47 38/38/41 42/42/45 
f 43/43/47 42/42/45 44/44/48 
f 42/42/45 45/45/49 44/44/48 
f 42/42/45 2/2/46 45/45/49 
f 2/2/46 46/46/50 45/45/49 
f 47/47/51 46/46/50 2/2/46 
f 46/46/50 47/47/51 48/48/52 
f 48/48/52 47/47/51 49/49/53 
f 48/48/52 49/49/53 50/50/54 
f 50/50/54 49/49/53 51/51/55 
f 50/50/54 52/52/56 48/48/52 
f 48/48/52 52/52/56 46/46/50 
f 46/46/50 52/52/56 45/45/49 
f 53/53/57 50/50/54 51/51/55 
f 51/51/55 54/54/58 53/53/57 
f 49/49/53 55/55/59 51/51/55 
f 51/51/55 55/55/59 54/54/58 
f 49/49/53 47/47/51 15/56/60 
f 49/49/53 15/56/60 55/55/59 
f 56/57/61 57/58/62 58/59/63 
f 58/59/63 9/60/64 56/57/61 
f 58/59/63 8/61/65 9/60/64 
f 59/62/66 8/61/65 58/59/63 
f 59/62/66 58/59/63 12/63/67 
f 12/63/67 58/59/63 57/58/62 
f 56/57/61 9/60/64 60/64/68 
f 60/64/68 9/60/64 61/65/69 
f 60/64/68 35/66/70 56/57/61 
f 62/67/71 56/57/61 35/66/70 
f 23/68/72 62/67/71 35/66/70 
f 12/63/67 57/58/62 63/69/73 
f 64/70/74 12/63/67 63/69/73 
f 65/71/75 64/70/74 63/69/73 
f 66/72/76 64/70/74 65/71/75 
f 64/70/74 66/72/76 14/73/77 
f 14/73/77 12/63/67 64/70/74 
f 67/74/78 63/69/73 57/58/62 
f 63/69/73 67/74/78 65/71/75 
f 68/75/79 67/74/78 57/58/62 
f 68/75/79 69/76/80 67/74/78 
f 67/74/78 69/76/80 70/77/81 
f 67/74/78 70/77/81 65/71/75 
f 69/76/80 71/78/82 70/77/81 
f 70/77/81 72/79/83 65/71/75 
f 69/76/80 73/80/84 71/78/82 
f 73/80/84 69/76/80 68/75/79 
f 73/80/84 68/75/79 74/81/85 
f 73/80/84 74/81/85 75/82/86 
f 74/81/85 68/75/79 76/83/87 
f 74/81/85 77/84/88 75/82/86 
f 76/83/87 77/84/88 74/81/85 
f 57/58/62 78/85/89 68/75/79 
f 57/58/62 56/57/61 78/85/89 
f 76/83/87 68/75/79 78/85/89 
f 79/86/90 77/84/88 76/83/87 
f 78/85/89 56/57/61 79/86/90 
f 62/67/71 79/86/90 56/57/61 
f 79/86/90 76/83/87 78/85/89 
f 23/68/72 80/87/91 62/67/71 
f 62/67/71 80/87/91 81/88/92 
f 81/88/92 79/86/90 62/67/71 
f 79/86/90 81/88/92 82/89/93 
f 82/89/93 81/88/92 80/87/91 
f 60/64/68 61/65/69 83/90/94 
f 83/90/94 35/66/70 60/64/68 
f 21/91/95 65/71/75 72/79/83 
f 19/92/96 65/71/75 21/91/95 
f 72/79/83 70/77/81 84/93/97 
f 85/94/98 86/95/99 87/96/100 
f 86/95/99 88/97/101 87/96/100 
f 89/98/102 87/96/100 88/97/101 
f 90/99/103 87/96/100 89/98/102 
f 89/98/102 70/100/104 90/99/103 
f 90/99/103 91/101/105 87/96/100 
f 87/96/100 91/101/105 85/94/98 
f 92/102/106 91/101/105 90/99/103 
f 92/102/106 93/103/107 91/101/105 
f 94/104/108 93/103/107 92/102/106 
f 95/105/109 93/103/107 94/104/108 
f 96/106/110 93/103/107 95/105/109 
f 96/106/110 97/107/111 93/103/107 
f 93/103/107 97/107/111 91/101/105 
f 91/101/105 97/107/111 85/94/98 
f 98/108/112 97/107/111 96/106/110 
f 98/108/112 99/109/113 97/107/111 
f 85/94/98 97/107/111 99/109/113 
f 98/108/112 100/110/114 99/109/113 
f 98/108/112 101/111/115 100/110/114 
f 88/97/101 86/95/99 102/112/116 
f 86/95/99 103/113/117 102/112/116 
f 104/114/118 86/95/99 85/94/98 
f 86/95/99 104/114/118 105/115/119 
f 103/113/117 86/95/99 105/115/119 
f 85/94/98 99/109/113 106/116/120 
f 85/94/98 106/116/120 104/114/118 
f 89/98/102 88/97/101 107/117/121 
f 107/117/121 88/97/101 102/112/116 
f 95/105/109 108/118/122 96/106/110 
f 96/106/110 108/118/122 109/119/123 
f 109/119/123 98/108/112 96/106/110 
f 108/118/122 110/120/124 109/119/123 
f 108/118/122 80/121/125 110/120/124 
f 110/120/124 80/121/125 111/122/126 
f 111/122/126 112/123/127 110/120/124 
f 113/124/128 110/120/124 112/123/127 
f 112/123/127 114/125/129 113/124/128 
f 112/123/127 115/126/130 114/125/129 
f 112/123/127 34/127/131 115/126/130 
f 25/128/132 34/127/131 112/123/127 
f 112/123/127 111/122/126 25/128/132 
f 23/129/133 111/122/126 80/121/125 
f 109/119/123 110/120/124 116/130/134 
f 113/124/128 116/130/134 110/120/124 
f 117/131/135 109/119/123 116/130/134 
f 101/111/115 98/108/112 117/131/135 
f 98/108/112 109/119/123 117/131/135 
f 116/130/134 118/132/136 117/131/135 
f 118/132/136 116/130/134 113/124/128 
f 117/131/135 119/133/137 101/111/115 
f 117/131/135 120/134/138 119/133/137 
f 120/134/138 117/131/135 118/132/136 
f 79/135/139 108/118/122 95/105/109 
f 79/135/139 95/105/109 94/104/108 
f 121/136/140 107/117/121 122/137/141 
f 121/136/140 122/137/141 123/138/142 
f 54/139/143 121/136/140 123/138/142 
f 121/136/140 89/98/144 107/117/121 
f 84/140/145 89/98/144 121/136/140 
f 124/141/146 84/140/145 121/136/140 
f 70/100/147 89/98/144 84/140/145 
f 72/142/148 125/143/149 126/144/150 
f 125/143/149 121/145/151 126/144/150 
f 124/146/152 121/145/151 125/143/149 
f 125/143/149 72/142/148 124/146/152 
f 124/146/152 72/142/148 84/147/153 
f 126/144/150 121/145/151 54/148/154 
f 55/149/155 126/144/150 54/148/154 
f 20/20/156 126/144/150 55/149/155 
f 15/15/157 20/20/156 55/149/155 
f 20/20/156 21/21/158 126/144/150 
f 126/144/150 21/21/158 72/142/148 
f 127/150/159 45/151/160 54/152/161 
f 52/153/162 54/152/161 45/151/160 
f 45/151/160 127/150/159 128/154/163 
f 123/155/164 127/150/159 54/152/161 
f 54/152/161 52/153/162 50/156/165 
f 54/152/161 50/156/165 53/157/166 
f 37/158/167 45/151/160 128/154/163 
f 38/159/168 45/151/160 37/158/167 
f 43/160/169 45/151/160 38/159/168 
f 45/151/160 43/160/169 44/161/170 
f 73/162/171 92/102/172 90/99/173 
f 92/102/172 73/162/171 94/104/174 
f 129/163/175 106/164/176 99/165/177 
f 129/163/175 99/165/177 100/164/178 
f 106/164/176 129/163/175 105/166/179 
f 105/166/179 104/167/180 106/164/176 
f 100/164/178 119/166/181 129/163/175 
f 119/166/181 100/164/178 101/167/182 
f 36/168/183 29/169/184 39/170/185 
f 39/170/185 29/169/184 41/171/186 
f 40/172/187 39/170/185 41/171/186 
f 36/168/183 37/173/188 29/169/184 
f 77/174/189 94/175/190 75/176/191 
f 73/177/192 75/176/191 94/175/190 
f 77/174/189 79/178/193 94/175/190 
f 18/179/194 17/180/195 47/181/196 
f 17/180/195 15/182/197 47/181/196 
f 18/179/194 47/181/196 2/183/198 
f 83/184/199 61/185/200 11/186/201 
f 11/186/201 61/185/200 9/187/202 
f 83/184/199 11/186/201 35/188/203 
f 4/189/204 26/190/205 6/191/206 
f 7/189/207 6/191/206 26/190/205 
f 90/192/208 70/193/209 71/194/210 
f 71/194/210 73/193/211 90/192/208 
f 66/195/212 19/196/213 14/197/214 
f 66/195/212 65/198/215 19/196/213 
f 111/199/216 24/200/217 25/201/218 
f 23/201/219 24/200/217 111/199/216 
f 108/202/220 82/203/221 80/204/221 
f 108/202/220 79/204/222 82/205/222 
f 59/206/223 12/207/223 8/208/223 
# 0 polygons - 238 triangles

